<?xml version="1.0" encoding="UTF-8"?>
<svg version="1.1" xmlns="http://www.w3.org/2000/svg" width="122" height="119">
<path d="M0 0 C6.24795675 -0.02527124 12.49590041 -0.04283344 18.74389648 -0.05493164 C20.87118014 -0.05997298 22.99846031 -0.06680591 25.12573242 -0.07543945 C28.17627826 -0.08751379 31.22677845 -0.09323014 34.27734375 -0.09765625 C35.71327126 -0.10539818 35.71327126 -0.10539818 37.1782074 -0.11329651 C38.05904495 -0.11337204 38.93988251 -0.11344757 39.84741211 -0.11352539 C40.62684677 -0.115746 41.40628143 -0.11796661 42.20933533 -0.12025452 C44 -0 44 -0 45 1 C45.14669158 3.26672511 45.2275397 5.5377621 45.28125 7.80859375 C45.29965942 8.49051285 45.31806885 9.17243195 45.33703613 9.87501526 C45.39594939 12.06242015 45.44868514 14.24990443 45.5 16.4375 C45.56757581 19.31136641 45.64128117 22.18497898 45.71875 25.05859375 C45.74904297 26.34048584 45.77933594 27.62237793 45.81054688 28.94311523 C45.79476892 31.91539652 45.79476892 31.91539652 47 34 C47.95366455 34.01458252 48.9073291 34.02916504 49.88989258 34.04418945 C53.42933585 34.10217792 56.96814324 34.17940958 60.50708008 34.26245117 C62.03855059 34.29569818 63.57014356 34.32373093 65.10180664 34.34643555 C67.30407887 34.37998718 69.50522912 34.4322991 71.70703125 34.48828125 C72.39150833 34.49467117 73.07598541 34.5010611 73.78120422 34.50764465 C78.54693387 34.65494024 78.54693387 34.65494024 80.67962646 36.27922058 C83.02669123 39.33803738 82.44640055 43.22910839 82.43359375 46.9375 C82.4388356 47.81398193 82.44407745 48.69046387 82.44947815 49.59350586 C82.45589994 51.44611553 82.4545593 53.29876596 82.44604492 55.15136719 C82.43753099 57.98966841 82.46629911 60.82596001 82.49804688 63.6640625 C82.49965884 65.46354106 82.49908144 67.2630232 82.49609375 69.0625 C82.50732773 69.91255615 82.51856171 70.7626123 82.53013611 71.63842773 C82.4616811 77.4099604 82.4616811 77.4099604 80.40356445 80.0402832 C77.16720955 81.33252405 74.53131262 81.33726245 71.046875 81.29296875 C70.38665344 81.28872391 69.72643188 81.28447906 69.04620361 81.28010559 C66.94704609 81.26337435 64.84886504 81.22573551 62.75 81.1875 C61.32293058 81.17244584 59.89584604 81.15875871 58.46875 81.14648438 C54.97885183 81.11349001 51.4895213 81.06174743 48 81 C46.16204197 76.77923473 45.73800783 73.62852829 46 69 C46.33 68.34 46.66 67.68 47 67 C43.75150023 68.72226496 43.75150023 68.72226496 43 72 C40 71 40 71 38.1875 68.25 C35.75874157 64.6415589 33.41462082 62.63857064 30 60 C31.61268692 62.71224618 33.24901874 65.37352812 35 68 C34.505 69.485 34.505 69.485 34 71 C31.03 68.36 28.06 65.72 25 63 C24.65586978 66.19725482 24.65586978 66.19725482 27.3125 68.4375 C28.199375 69.283125 29.08625 70.12875 30 71 C31.02813611 72.31175986 32.04084432 73.6369893 33 75 C29.60807637 74.40716379 27.7892243 73.23256811 25.25 70.9375 C24.63640625 70.38964844 24.0228125 69.84179688 23.390625 69.27734375 C22.70226563 68.64505859 22.70226563 68.64505859 22 68 C21.77256058 70.18377917 21.77256058 70.18377917 23.75 71.875 C24.86375 72.926875 24.86375 72.926875 26 74 C27.37086915 75.29470975 28.71340837 76.62150897 30 78 C30 78.66 30 79.32 30 80 C25.80639551 79.32902328 22.59665648 77.1441606 19 75 C21.36153509 77.42900752 23.60824427 79.72164725 26.375 81.6875 C29.6915499 84.60922253 31.8449713 87.96277182 34.30078125 91.6171875 C36.00631571 94.16729477 36.00631571 94.16729477 38.6875 96.5625 C42.85730755 100.95770256 44.76258401 105.89717267 45.4375 111.875 C44.95908082 115.29227986 44.63637489 115.95827338 42 118 C39.02217871 118.28625677 36.25799218 118.39638391 33.28125 118.36328125 C32.42696411 118.36377975 31.57267822 118.36427826 30.69250488 118.36479187 C28.88693922 118.36245215 27.08137025 118.35272957 25.27587891 118.33618164 C22.51044585 118.31258912 19.74597687 118.31562132 16.98046875 118.32226562 C15.22655675 118.31668878 13.47264881 118.30957886 11.71875 118.30078125 C10.47647644 118.30214836 10.47647644 118.30214836 9.20910645 118.30354309 C5.30208669 118.25523361 3.32283618 118.21522412 0 116 C-0.59077956 111.89667005 -0.47204715 107.77819038 -0.44604492 103.63598633 C-0.43765723 101.6006538 -0.46606723 99.56824889 -0.49804688 97.53320312 C-0.49245856 86.18332948 1.13961947 77.36152556 9.13671875 69.0390625 C11.21659459 66.76297196 12.89720687 64.36466502 14.625 61.8125 C16.56490541 58.96175864 18.44230547 56.38273506 20.9375 54 C21.618125 53.34 22.29875 52.68 23 52 C23 51.34 23 50.68 23 50 C22.071875 50.825 21.14375 51.65 20.1875 52.5 C17.375 55 17.375 55 14 55 C15.45281065 49.67302761 19.08111378 46.63597198 23 43 C20.05645643 43 19.02421163 44.55877659 16.875 46.5 C16.15054688 47.1496875 15.42609375 47.799375 14.6796875 48.46875 C14.12539063 48.9740625 13.57109375 49.479375 13 50 C12.01 49.505 12.01 49.505 11 49 C11.63808594 48.31292969 12.27617188 47.62585937 12.93359375 46.91796875 C13.75988281 46.01691406 14.58617187 45.11585937 15.4375 44.1875 C16.67306641 42.84751953 16.67306641 42.84751953 17.93359375 41.48046875 C20.16719088 39.10551917 20.16719088 39.10551917 21 36 C16.61105071 39.26720791 12.24740335 42.54898478 8 46 C9.56641751 41.69235185 11.68336156 37.93828536 14 34 C10.36671383 35.45016194 8.88258423 37.22192317 6.8125 40.5 C6.30332031 41.2940625 5.79414062 42.088125 5.26953125 42.90625 C3.98928016 44.9536621 3.98928016 44.9536621 3 47 C0.00667261 46.0022242 -0.94766315 45.2477975 -3 43 C-2.814375 43.80308594 -2.62875 44.60617188 -2.4375 45.43359375 C-1.89710933 49.83874272 -2.32589546 53.69634984 -3 58.0625 C-3.12737549 58.89434814 -3.25475098 59.72619629 -3.38598633 60.58325195 C-4.75549086 68.36326703 -7.68425223 74.41405067 -12 81 C-15.60409919 81.05800828 -19.20807851 81.09359869 -22.8125 81.125 C-23.83666016 81.14175781 -24.86082031 81.15851563 -25.91601562 81.17578125 C-26.89892578 81.18222656 -27.88183594 81.18867187 -28.89453125 81.1953125 C-29.80050049 81.20578613 -30.70646973 81.21625977 -31.63989258 81.22705078 C-34 81 -34 81 -37 79 C-37.38095093 77.1784668 -37.38095093 77.1784668 -37.38818359 74.94921875 C-37.39764008 74.11495361 -37.40709656 73.28068848 -37.4168396 72.42114258 C-37.41076691 71.51904053 -37.40469421 70.61693848 -37.3984375 69.6875 C-37.40130768 68.76283936 -37.40417786 67.83817871 -37.40713501 66.88549805 C-37.40917849 64.92854196 -37.40362882 62.97156557 -37.39111328 61.01464844 C-37.37506364 58.01190707 -37.39095237 55.01051179 -37.41015625 52.0078125 C-37.40817387 50.10937202 -37.4043303 48.21093237 -37.3984375 46.3125 C-37.40451019 45.41039795 -37.41058289 44.5082959 -37.4168396 43.57885742 C-37.40738312 42.74459229 -37.39792664 41.91032715 -37.38818359 41.05078125 C-37.38579681 40.31512939 -37.38341003 39.57947754 -37.38095093 38.8215332 C-37 37 -37 37 -34 35 C-31.53615097 34.76034953 -29.17459424 34.62758 -26.70703125 34.5859375 C-26.00100266 34.56657135 -25.29497406 34.5472052 -24.56755066 34.5272522 C-22.31598939 34.46754776 -20.06437672 34.4211086 -17.8125 34.375 C-16.28448311 34.33681171 -14.75648755 34.29775948 -13.22851562 34.2578125 C-9.48585065 34.16185404 -5.7430849 34.07778989 -2 34 C-0.52793987 31.05587973 -0.76192808 28.03714085 -0.68359375 24.8046875 C-0.66281265 24.09724396 -0.64203156 23.38980042 -0.62062073 22.66091919 C-0.55518922 20.39904575 -0.49627026 18.13705538 -0.4375 15.875 C-0.39430867 14.34243578 -0.35069418 12.80988343 -0.30664062 11.27734375 C-0.19951445 7.51834927 -0.0982291 3.75923708 0 0 Z " fill="#115132" transform="translate(40,0)"/>
<path d="M0 0 C1.98 0 3.96 0 6 0 C6.391875 0.969375 6.78375 1.93875 7.1875 2.9375 C8.67594887 6.22176391 8.67594887 6.22176391 11.6875 6.875 C12.450625 6.91625 13.21375 6.9575 14 7 C14 9.64 14 12.28 14 15 C12.576875 15.3403125 12.576875 15.3403125 11.125 15.6875 C7.80676612 16.69083714 7.80676612 16.69083714 6.625 19.625 C6.41875 20.40875 6.2125 21.1925 6 22 C4.02 22 2.04 22 0 22 C-0.5878125 20.576875 -0.5878125 20.576875 -1.1875 19.125 C-3.19793856 15.65872662 -4.22699642 15.0197307 -8 14 C-8 12.02 -8 10.04 -8 8 C-6.576875 7.4121875 -6.576875 7.4121875 -5.125 6.8125 C-1.65872662 4.80206144 -1.0197307 3.77300358 0 0 Z " fill="#ED3838" transform="translate(100,5)"/>
<path d="M0 0 C2.97 0.495 2.97 0.495 6 1 C5.690625 1.5775 5.38125 2.155 5.0625 2.75 C4.07416636 4.84294184 3.4831387 6.74535275 3 9 C3.66 9 4.32 9 5 9 C5 7.68 5 6.36 5 5 C6.32 4.34 7.64 3.68 9 3 C9.66 3.66 10.32 4.32 11 5 C11.99 5.33 12.98 5.66 14 6 C14 6.66 14 7.32 14 8 C13.38125 8.226875 12.7625 8.45375 12.125 8.6875 C9.38589791 10.37929835 8.94975528 11.99244161 8 15 C6.02 15 4.04 15 2 15 C1.566875 14.05125 1.13375 13.1025 0.6875 12.125 C-0.79302201 8.79958063 -0.79302201 8.79958063 -4 7 C-4.1875 3.875 -4.1875 3.875 -4 1 C-2.68 1.33 -1.36 1.66 0 2 C0 1.34 0 0.68 0 0 Z " fill="#FA3232" transform="translate(98,12)"/>
<path d="M0 0 C1.05904289 0.00424484 1.05904289 0.00424484 2.13948059 0.00857544 C4.39133758 0.01975786 6.64279477 0.0448583 8.89453125 0.0703125 C10.42252029 0.08034483 11.95051558 0.08947024 13.47851562 0.09765625 C17.22150788 0.11969078 20.96420181 0.15420683 24.70703125 0.1953125 C24.37703125 1.1853125 24.04703125 2.1753125 23.70703125 3.1953125 C23.04703125 2.8653125 22.38703125 2.5353125 21.70703125 2.1953125 C17.04494828 1.95043791 12.37481757 2.01010964 7.70703125 2.0078125 C5.7425 1.98944336 5.7425 1.98944336 3.73828125 1.97070312 C2.49046875 1.96876953 1.24265625 1.96683594 -0.04296875 1.96484375 C-1.76773437 1.95868042 -1.76773437 1.95868042 -3.52734375 1.95239258 C-6.43537836 1.90937281 -6.43537836 1.90937281 -8.29296875 4.1953125 C-8.46843357 7.20840201 -8.5242432 10.12841704 -8.48828125 13.140625 C-8.48545135 14.0256369 -8.48262146 14.9106488 -8.47970581 15.82247925 C-8.46849115 18.65522662 -8.44338445 21.48766034 -8.41796875 24.3203125 C-8.4079406 26.23827669 -8.39881447 28.15624583 -8.390625 30.07421875 C-8.37024729 34.7814687 -8.33110148 39.4880386 -8.29296875 44.1953125 C-1.36296875 44.5253125 5.56703125 44.8553125 12.70703125 45.1953125 C13.36703125 43.5453125 14.02703125 41.8953125 14.70703125 40.1953125 C15.36703125 40.1953125 16.02703125 40.1953125 16.70703125 40.1953125 C16.70703125 39.2053125 16.70703125 38.2153125 16.70703125 37.1953125 C17.36703125 37.1953125 18.02703125 37.1953125 18.70703125 37.1953125 C17.64828051 40.59843988 16.69800971 43.20884481 14.70703125 46.1953125 C12.50805664 46.56762695 12.50805664 46.56762695 9.8046875 46.55859375 C8.83208984 46.55794922 7.85949219 46.55730469 6.85742188 46.55664062 C5.83841797 46.54052734 4.81941406 46.52441406 3.76953125 46.5078125 C2.75439453 46.51103516 1.73925781 46.51425781 0.69335938 46.51757812 C-6.89240627 46.46235415 -6.89240627 46.46235415 -10.29296875 44.1953125 C-10.67391968 42.3737793 -10.67391968 42.3737793 -10.68115234 40.14453125 C-10.69060883 39.31026611 -10.70006531 38.47600098 -10.70980835 37.61645508 C-10.70373566 36.71435303 -10.69766296 35.81225098 -10.69140625 34.8828125 C-10.69427643 33.95815186 -10.69714661 33.03349121 -10.70010376 32.08081055 C-10.70214724 30.12385446 -10.69659757 28.16687807 -10.68408203 26.20996094 C-10.66803239 23.20721957 -10.68392112 20.20582429 -10.703125 17.203125 C-10.70114262 15.30468452 -10.69729905 13.40624487 -10.69140625 11.5078125 C-10.69747894 10.60571045 -10.70355164 9.7036084 -10.70980835 8.77416992 C-10.70035187 7.93990479 -10.69089539 7.10563965 -10.68115234 6.24609375 C-10.67876556 5.51044189 -10.67637878 4.77479004 -10.67391968 4.0168457 C-9.62068239 -1.01925355 -4.0123097 -0.06050948 0 0 Z " fill="#1C4A35" transform="translate(13.29296875,34.8046875)"/>
<path d="M0 0 C0.33 0 0.66 0 1 0 C0.99887207 0.73637695 0.99774414 1.47275391 0.99658203 2.23144531 C1.00869656 5.5718943 1.0663402 8.91005774 1.125 12.25 C1.12242188 13.40886719 1.11984375 14.56773438 1.1171875 15.76171875 C1.07648977 22.50931649 1.07648977 22.50931649 4.84375 27.75 C14.25660695 31.47786414 26.87104703 30.85770757 36.8125 29.4375 C40 29 40 29 43 30 C43 27.69 43 25.38 43 23 C43.66 22.67 44.32 22.34 45 22 C45.36820236 28.50490837 45.36820236 28.50490837 43.73034668 30.7071991 C40.6907804 32.97816253 36.93083205 32.40386619 33.28125 32.36328125 C32.42696411 32.36377975 31.57267822 32.36427826 30.69250488 32.36479187 C28.88693922 32.36245215 27.08137025 32.35272957 25.27587891 32.33618164 C22.51044585 32.31258912 19.74597687 32.31562132 16.98046875 32.32226562 C15.22655675 32.31668878 13.47264881 32.30957886 11.71875 32.30078125 C10.47647644 32.30214836 10.47647644 32.30214836 9.20910645 32.30354309 C5.30208669 32.25523361 3.32283618 32.21522412 0 30 C-0.34057617 27.01904297 -0.34057617 27.01904297 -0.29296875 23.2421875 C-0.28872391 22.57913605 -0.28447906 21.91608459 -0.28010559 21.23294067 C-0.26329971 19.11321559 -0.22564701 16.99443812 -0.1875 14.875 C-0.17245549 13.43881581 -0.15876668 12.00261672 -0.14648438 10.56640625 C-0.1133909 7.04396236 -0.0615968 3.52207364 0 0 Z " fill="#204534" transform="translate(40,86)"/>
<path d="M0 0 C2.27563731 0.00357243 4.47853689 0.11816652 6.73828125 0.37890625 C6.82587686 4.58349567 6.57700096 6.46897449 3.66796875 9.625 C1.40604147 11.61393606 -0.88440122 13.52988151 -3.26171875 15.37890625 C-3.92171875 15.04890625 -4.58171875 14.71890625 -5.26171875 14.37890625 C-4.30458984 13.34830078 -4.30458984 13.34830078 -3.328125 12.296875 C-2.50183594 11.39582031 -1.67554688 10.49476562 -0.82421875 9.56640625 C-0.00050781 8.67308594 0.82320312 7.77976562 1.671875 6.859375 C3.90547213 4.48442542 3.90547213 4.48442542 4.73828125 1.37890625 C0.34933196 4.64611416 -4.0143154 7.92789103 -8.26171875 11.37890625 C-4.51244761 0.75597136 -4.51244761 0.75597136 0 0 Z " fill="#224637" transform="translate(56.26171875,34.62109375)"/>
<path d="M0 0 C0.33 0 0.66 0 1 0 C0.99887207 0.73637695 0.99774414 1.47275391 0.99658203 2.23144531 C1.00869656 5.5718943 1.0663402 8.91005774 1.125 12.25 C1.12242188 13.40886719 1.11984375 14.56773438 1.1171875 15.76171875 C1.08483198 22.48353169 1.08483198 22.48353169 4.78125 27.75 C7.44536237 28.78460674 9.5467969 29.55495151 12.375 29.75 C13.57125 29.8325 14.7675 29.915 16 30 C16 30.33 16 30.66 16 31 C13.52076199 31.02685095 11.0418116 31.04676547 8.5625 31.0625 C7.85544922 31.07087891 7.14839844 31.07925781 6.41992188 31.08789062 C4.61306441 31.09653588 2.80612397 31.05220011 1 31 C0 30 0 30 -0.11352539 27.13256836 C-0.10828857 25.88096924 -0.10305176 24.62937012 -0.09765625 23.33984375 C-0.0962413 22.67537735 -0.09482635 22.01091095 -0.09336853 21.3263092 C-0.08775518 19.19666101 -0.07520054 17.06711661 -0.0625 14.9375 C-0.05748671 13.49674631 -0.05292351 12.05599097 -0.04882812 10.61523438 C-0.03778145 7.07678898 -0.02050792 3.53840461 0 0 Z " fill="#1F503A" transform="translate(40,86)"/>
<path d="M0 0 C0.66 0 1.32 0 2 0 C0.62121957 4.02144292 -1.31742634 6.73061335 -4 10 C-4.70885894 11.31138904 -5.39456452 12.63777017 -6 14 C-9.00609963 12.99796679 -10.06176821 12.39971554 -12 10 C-12 9.01 -12 8.02 -12 7 C-11.34 6.67 -10.68 6.34 -10 6 C-10 6.66 -10 7.32 -10 8 C-9.34 8 -8.68 8 -8 8 C-7.34 6.68 -6.68 5.36 -6 4 C-4.68 4.33 -3.36 4.66 -2 5 C-1.34 3.35 -0.68 1.7 0 0 Z " fill="#1B4E37" transform="translate(49,33)"/>
<path d="M0 0 C1.1055189 0.93590504 2.20935453 1.87379858 3.3125 2.8125 C3.92738281 3.33457031 4.54226562 3.85664062 5.17578125 4.39453125 C8.51952278 7.3373102 8.51952278 7.3373102 10 9 C10 9.66 10 10.32 10 11 C7.39440972 10.51748328 5.73047271 9.83565409 3.4375 8.4375 C1.04095169 6.74600749 1.04095169 6.74600749 -2 7 C-1.42415568 4.61435923 -0.77772405 2.33317216 0 0 Z " fill="#1E4A37" transform="translate(60,69)"/>
<path d="M0 0 C0.66 0.33 1.32 0.66 2 1 C1.84876423 3.64662605 1.49998757 5.44278494 -0.296875 7.4453125 C-4.4 11 -4.4 11 -8 11 C-6.52670958 5.99081256 -3.72484762 3.48192278 0 0 Z " fill="#1D4937" transform="translate(62,44)"/>
<path d="M0 0 C0.66 0.33 1.32 0.66 2 1 C1.401875 1.721875 0.80375 2.44375 0.1875 3.1875 C-2.0352811 5.91314203 -2.0352811 5.91314203 -3.625 8.8125 C-4.07875 9.534375 -4.5325 10.25625 -5 11 C-5.66 11 -6.32 11 -7 11 C-6.67 12.65 -6.34 14.3 -6 16 C-7.98 16.99 -7.98 16.99 -10 18 C-8.34724308 10.31861548 -5.60488609 5.49739512 0 0 Z " fill="#1C4B36" transform="translate(51,67)"/>
<path d="M0 0 C0.66 0.33 1.32 0.66 2 1 C2 11.23 2 21.46 2 32 C1.67 32 1.34 32 1 32 C0.97494385 31.16750732 0.9498877 30.33501465 0.92407227 29.47729492 C0.82887306 26.38537167 0.72964328 23.29361148 0.62768555 20.2019043 C0.56312994 18.20696681 0.5032217 16.21188071 0.44335938 14.21679688 C0.40146484 12.96318359 0.35957031 11.70957031 0.31640625 10.41796875 C0.27974854 9.26063232 0.24309082 8.1032959 0.20532227 6.91088867 C0.11671491 3.9356554 0.11671491 3.9356554 -1 1 C-0.67 0.67 -0.34 0.34 0 0 Z " fill="#26543F" transform="translate(83,0)"/>
<path d="M0 0 C0.99 0.495 0.99 0.495 2 1 C3.73868744 1.15266612 5.48247501 1.24932596 7.2265625 1.31640625 C8.2578125 1.35830078 9.2890625 1.40019531 10.3515625 1.44335938 C11.43179688 1.48267578 12.51203125 1.52199219 13.625 1.5625 C15.25695312 1.62727539 15.25695312 1.62727539 16.921875 1.69335938 C19.6144517 1.7996453 22.30712253 1.90168057 25 2 C25 2.33 25 2.66 25 3 C24.11477661 3.03758423 24.11477661 3.03758423 23.21166992 3.07592773 C20.53673186 3.19200052 17.8621362 3.31467572 15.1875 3.4375 C13.7943457 3.49647461 13.7943457 3.49647461 12.37304688 3.55664062 C11.0340332 3.61948242 11.0340332 3.61948242 9.66796875 3.68359375 C8.43469849 3.73858032 8.43469849 3.73858032 7.17651367 3.79467773 C4.82094822 3.93427772 4.82094822 3.93427772 2 5 C1.34 4.67 0.68 4.34 0 4 C0 2.68 0 1.36 0 0 Z " fill="#1D4832" transform="translate(85,33)"/>
<path d="M0 0 C4.27124556 0.47458284 6.20508608 2.91842825 9 6 C10.02813611 7.31175986 11.04084432 8.6369893 12 10 C8.39428893 9.40716913 6.45570562 7.97258223 3.75 5.5625 C3.04359375 4.94503906 2.3371875 4.32757813 1.609375 3.69140625 C0 2 0 2 0 0 Z " fill="#294A3D" transform="translate(61,65)"/>
<path d="M0 0 C0.66 0 1.32 0 2 0 C3.2890625 1.4609375 3.2890625 1.4609375 4.625 3.375 C5.29402344 4.31472656 5.29402344 4.31472656 5.9765625 5.2734375 C7 7 7 7 7 9 C5.68 9.33 4.36 9.66 3 10 C2.87625 9.195625 2.7525 8.39125 2.625 7.5625 C2.315625 6.2940625 2.315625 6.2940625 2 5 C1.34 4.67 0.68 4.34 0 4 C0 2.68 0 1.36 0 0 Z " fill="#204D37" transform="translate(67,84)"/>
<path d="M0 0 C1.32 0.33 2.64 0.66 4 1 C3.34 2.65 2.68 4.3 2 6 C0.02 6 -1.96 6 -4 6 C-4.33 5.01 -4.66 4.02 -5 3 C-2.03 3.495 -2.03 3.495 1 4 C0.67 2.68 0.34 1.36 0 0 Z " fill="#E53B42" transform="translate(104,21)"/>
<path d="M0 0 C0.33 0.99 0.66 1.98 1 3 C0.01 3.33 -0.98 3.66 -2 4 C-2.433125 4.928125 -2.433125 4.928125 -2.875 5.875 C-4.35958123 8.67920898 -6.23974247 9.54723288 -9 11 C-7.44095325 7.17324889 -4.96833913 4.81992217 -2 2 C-1.34 1.34 -0.68 0.68 0 0 Z " fill="#1D4C37" transform="translate(65,50)"/>
<path d="M0 0 C1.9375 0.375 1.9375 0.375 4 1 C4.33 1.66 4.66 2.32 5 3 C1.86650268 4.04449911 1.01031744 3.93423645 -2 3 C-2 3.99 -2 4.98 -2 6 C-2.66 6 -3.32 6 -4 6 C-4 4.35 -4 2.7 -4 1 C-2.68 1.33 -1.36 1.66 0 2 C0 1.34 0 0.68 0 0 Z " fill="#FB312B" transform="translate(98,12)"/>
<path d="M0 0 C1 3 1 3 -0.1875 5.5 C-1.94150569 7.9193182 -3.51794573 9.37382651 -6 11 C-4.54955729 6.89041233 -2.48889248 3.56741255 0 0 Z " fill="#27463B" transform="translate(54,35)"/>
<path d="M0 0 C1.98 0 3.96 0 6 0 C5.34 1.65 4.68 3.3 4 5 C3.01 4.67 2.02 4.34 1 4 C0.3125 1.9375 0.3125 1.9375 0 0 Z " fill="#204837" transform="translate(79,67)"/>
<path d="M0 0 C1.9375 0.6875 1.9375 0.6875 4 2 C4.75 4.625 4.75 4.625 5 7 C3.02 5.35 1.04 3.7 -1 2 C-0.67 1.34 -0.34 0.68 0 0 Z " fill="#27453B" transform="translate(70,64)"/>
<path d="M0 0 C3.79588866 0.54226981 5.47211993 2.20127563 8 5 C7.67 5.99 7.34 6.98 7 8 C5.83035398 6.8572081 4.66435444 5.71068285 3.5 4.5625 C2.8503125 3.92441406 2.200625 3.28632812 1.53125 2.62890625 C0 1 0 1 0 0 Z " fill="#1F4A34" transform="translate(71,59)"/>
</svg>
